<mxfile host="app.diagrams.net" agent="Mozilla/5.0 (Windows NT 10.0; Win64; x64; rv:139.0) Gecko/20100101 Firefox/139.0" version="27.1.1">
  <diagram id="khxI4DQ46HlH7GRu3Q0X" name="Device List Page">
    <mxGraphModel dx="1426" dy="751" grid="1" gridSize="10" guides="1" tooltips="1" connect="1" arrows="1" fold="1" page="1" pageScale="1" pageWidth="1169" pageHeight="827" math="0" shadow="0">
      <root>
        <mxCell id="0" />
        <mxCell id="1" parent="0" />
        <mxCell id="spnfCB9e1XpUlM8C7SCa-1" value="" style="rounded=0;whiteSpace=wrap;html=1;" parent="1" vertex="1">
          <mxGeometry x="10" y="10" width="1150" height="70" as="geometry" />
        </mxCell>
        <mxCell id="vAdtxSCNh8U652SfT9nN-86" value="People Counting Demo" style="text;strokeColor=none;fillColor=none;html=1;fontSize=24;fontStyle=1;verticalAlign=middle;align=center;" parent="1" vertex="1">
          <mxGeometry x="460" y="25" width="250" height="40" as="geometry" />
        </mxCell>
        <mxCell id="Yua7cjV3qeu96Og5LBfV-1" value="" style="shape=image;html=1;verticalAlign=top;verticalLabelPosition=bottom;labelBackgroundColor=#ffffff;imageAspect=0;aspect=fixed;image=https://cdn4.iconfinder.com/data/icons/evil-icons-user-interface/64/menu-128.png" parent="1" vertex="1">
          <mxGeometry x="20" y="15" width="60" height="60" as="geometry" />
        </mxCell>
        <mxCell id="rxG2Dj7wDqJCTIP3Ryzs-4" value="" style="rounded=0;whiteSpace=wrap;html=1;" parent="1" vertex="1">
          <mxGeometry x="900" y="90" width="200" height="60" as="geometry" />
        </mxCell>
        <mxCell id="rxG2Dj7wDqJCTIP3Ryzs-2" value="" style="shape=image;html=1;verticalAlign=top;verticalLabelPosition=bottom;labelBackgroundColor=#ffffff;imageAspect=0;aspect=fixed;image=https://cdn3.iconfinder.com/data/icons/web-ui-3/128/Plus-2-128.png" parent="1" vertex="1">
          <mxGeometry x="910" y="95" width="50" height="50" as="geometry" />
        </mxCell>
        <mxCell id="rxG2Dj7wDqJCTIP3Ryzs-6" value="Add Device" style="text;strokeColor=none;fillColor=none;html=1;fontSize=24;fontStyle=1;verticalAlign=middle;align=center;" parent="1" vertex="1">
          <mxGeometry x="960" y="100" width="140" height="40" as="geometry" />
        </mxCell>
        <mxCell id="ehSt0-UBUnzZHvyIIuaT-1" value="" style="rounded=1;whiteSpace=wrap;html=1;" parent="1" vertex="1">
          <mxGeometry x="80" y="170" width="1010" height="60" as="geometry" />
        </mxCell>
        <mxCell id="ehSt0-UBUnzZHvyIIuaT-8" value="" style="shape=ext;double=1;rounded=1;whiteSpace=wrap;html=1;" parent="1" vertex="1">
          <mxGeometry x="90" y="175" width="200" height="50" as="geometry" />
        </mxCell>
        <mxCell id="ehSt0-UBUnzZHvyIIuaT-15" value="&lt;font style=&quot;font-size: 15px;&quot;&gt;American Eagle Sensor 1&lt;/font&gt;" style="text;strokeColor=none;fillColor=none;html=1;fontSize=24;fontStyle=1;verticalAlign=middle;align=center;" parent="1" vertex="1">
          <mxGeometry x="140" y="180" width="100" height="40" as="geometry" />
        </mxCell>
        <mxCell id="ehSt0-UBUnzZHvyIIuaT-22" value="" style="shape=ext;double=1;rounded=1;whiteSpace=wrap;html=1;" parent="1" vertex="1">
          <mxGeometry x="690" y="175" width="170" height="50" as="geometry" />
        </mxCell>
        <mxCell id="ehSt0-UBUnzZHvyIIuaT-23" value="" style="shape=ext;double=1;rounded=1;whiteSpace=wrap;html=1;" parent="1" vertex="1">
          <mxGeometry x="870" y="175" width="100" height="50" as="geometry" />
        </mxCell>
        <mxCell id="ehSt0-UBUnzZHvyIIuaT-24" value="" style="shape=ext;double=1;rounded=1;whiteSpace=wrap;html=1;" parent="1" vertex="1">
          <mxGeometry x="980" y="175" width="100" height="50" as="geometry" />
        </mxCell>
        <mxCell id="ehSt0-UBUnzZHvyIIuaT-25" value="View Counts" style="text;strokeColor=none;fillColor=none;html=1;fontSize=24;fontStyle=1;verticalAlign=middle;align=center;" parent="1" vertex="1">
          <mxGeometry x="725" y="180" width="100" height="40" as="geometry" />
        </mxCell>
        <mxCell id="ehSt0-UBUnzZHvyIIuaT-26" value="Edit" style="text;strokeColor=none;fillColor=none;html=1;fontSize=24;fontStyle=1;verticalAlign=middle;align=center;" parent="1" vertex="1">
          <mxGeometry x="870" y="180" width="100" height="40" as="geometry" />
        </mxCell>
        <mxCell id="ehSt0-UBUnzZHvyIIuaT-27" value="Delete" style="text;strokeColor=none;fillColor=none;html=1;fontSize=24;fontStyle=1;verticalAlign=middle;align=center;" parent="1" vertex="1">
          <mxGeometry x="980" y="180" width="100" height="40" as="geometry" />
        </mxCell>
        <mxCell id="ehSt0-UBUnzZHvyIIuaT-74" value="" style="rounded=1;whiteSpace=wrap;html=1;" parent="1" vertex="1">
          <mxGeometry x="80" y="240" width="1010" height="60" as="geometry" />
        </mxCell>
        <mxCell id="ehSt0-UBUnzZHvyIIuaT-75" value="" style="shape=ext;double=1;rounded=1;whiteSpace=wrap;html=1;" parent="1" vertex="1">
          <mxGeometry x="90" y="245" width="200" height="50" as="geometry" />
        </mxCell>
        <mxCell id="ehSt0-UBUnzZHvyIIuaT-76" value="&lt;font style=&quot;font-size: 15px;&quot;&gt;American Eagle Sensor 2&lt;/font&gt;" style="text;strokeColor=none;fillColor=none;html=1;fontSize=24;fontStyle=1;verticalAlign=middle;align=center;" parent="1" vertex="1">
          <mxGeometry x="140" y="250" width="100" height="40" as="geometry" />
        </mxCell>
        <mxCell id="ehSt0-UBUnzZHvyIIuaT-77" value="" style="shape=ext;double=1;rounded=1;whiteSpace=wrap;html=1;" parent="1" vertex="1">
          <mxGeometry x="690" y="245" width="170" height="50" as="geometry" />
        </mxCell>
        <mxCell id="ehSt0-UBUnzZHvyIIuaT-78" value="" style="shape=ext;double=1;rounded=1;whiteSpace=wrap;html=1;" parent="1" vertex="1">
          <mxGeometry x="870" y="245" width="100" height="50" as="geometry" />
        </mxCell>
        <mxCell id="ehSt0-UBUnzZHvyIIuaT-79" value="" style="shape=ext;double=1;rounded=1;whiteSpace=wrap;html=1;" parent="1" vertex="1">
          <mxGeometry x="980" y="245" width="100" height="50" as="geometry" />
        </mxCell>
        <mxCell id="ehSt0-UBUnzZHvyIIuaT-80" value="View Counts" style="text;strokeColor=none;fillColor=none;html=1;fontSize=24;fontStyle=1;verticalAlign=middle;align=center;" parent="1" vertex="1">
          <mxGeometry x="725" y="250" width="100" height="40" as="geometry" />
        </mxCell>
        <mxCell id="ehSt0-UBUnzZHvyIIuaT-81" value="Edit" style="text;strokeColor=none;fillColor=none;html=1;fontSize=24;fontStyle=1;verticalAlign=middle;align=center;" parent="1" vertex="1">
          <mxGeometry x="870" y="250" width="100" height="40" as="geometry" />
        </mxCell>
        <mxCell id="ehSt0-UBUnzZHvyIIuaT-82" value="Delete" style="text;strokeColor=none;fillColor=none;html=1;fontSize=24;fontStyle=1;verticalAlign=middle;align=center;" parent="1" vertex="1">
          <mxGeometry x="980" y="250" width="100" height="40" as="geometry" />
        </mxCell>
        <mxCell id="ehSt0-UBUnzZHvyIIuaT-83" value="" style="rounded=1;whiteSpace=wrap;html=1;" parent="1" vertex="1">
          <mxGeometry x="80" y="310" width="1010" height="60" as="geometry" />
        </mxCell>
        <mxCell id="ehSt0-UBUnzZHvyIIuaT-84" value="" style="shape=ext;double=1;rounded=1;whiteSpace=wrap;html=1;" parent="1" vertex="1">
          <mxGeometry x="90" y="315" width="200" height="50" as="geometry" />
        </mxCell>
        <mxCell id="ehSt0-UBUnzZHvyIIuaT-85" value="&lt;font style=&quot;font-size: 21px;&quot;&gt;Woods Sensor 1&lt;/font&gt;" style="text;strokeColor=none;fillColor=none;html=1;fontSize=24;fontStyle=1;verticalAlign=middle;align=center;" parent="1" vertex="1">
          <mxGeometry x="140" y="320" width="100" height="40" as="geometry" />
        </mxCell>
        <mxCell id="ehSt0-UBUnzZHvyIIuaT-86" value="" style="shape=ext;double=1;rounded=1;whiteSpace=wrap;html=1;" parent="1" vertex="1">
          <mxGeometry x="690" y="315" width="170" height="50" as="geometry" />
        </mxCell>
        <mxCell id="ehSt0-UBUnzZHvyIIuaT-87" value="" style="shape=ext;double=1;rounded=1;whiteSpace=wrap;html=1;" parent="1" vertex="1">
          <mxGeometry x="870" y="315" width="100" height="50" as="geometry" />
        </mxCell>
        <mxCell id="ehSt0-UBUnzZHvyIIuaT-88" value="" style="shape=ext;double=1;rounded=1;whiteSpace=wrap;html=1;" parent="1" vertex="1">
          <mxGeometry x="980" y="315" width="100" height="50" as="geometry" />
        </mxCell>
        <mxCell id="ehSt0-UBUnzZHvyIIuaT-89" value="View Counts" style="text;strokeColor=none;fillColor=none;html=1;fontSize=24;fontStyle=1;verticalAlign=middle;align=center;" parent="1" vertex="1">
          <mxGeometry x="725" y="320" width="100" height="40" as="geometry" />
        </mxCell>
        <mxCell id="ehSt0-UBUnzZHvyIIuaT-90" value="Edit" style="text;strokeColor=none;fillColor=none;html=1;fontSize=24;fontStyle=1;verticalAlign=middle;align=center;" parent="1" vertex="1">
          <mxGeometry x="870" y="320" width="100" height="40" as="geometry" />
        </mxCell>
        <mxCell id="ehSt0-UBUnzZHvyIIuaT-91" value="Delete" style="text;strokeColor=none;fillColor=none;html=1;fontSize=24;fontStyle=1;verticalAlign=middle;align=center;" parent="1" vertex="1">
          <mxGeometry x="980" y="320" width="100" height="40" as="geometry" />
        </mxCell>
        <mxCell id="ehSt0-UBUnzZHvyIIuaT-92" value="" style="rounded=1;whiteSpace=wrap;html=1;" parent="1" vertex="1">
          <mxGeometry x="80" y="384" width="1010" height="60" as="geometry" />
        </mxCell>
        <mxCell id="ehSt0-UBUnzZHvyIIuaT-93" value="" style="shape=ext;double=1;rounded=1;whiteSpace=wrap;html=1;" parent="1" vertex="1">
          <mxGeometry x="90" y="389" width="200" height="50" as="geometry" />
        </mxCell>
        <mxCell id="ehSt0-UBUnzZHvyIIuaT-94" value="&lt;font style=&quot;font-size: 21px;&quot;&gt;Woods Sensor 2&lt;/font&gt;" style="text;strokeColor=none;fillColor=none;html=1;fontSize=24;fontStyle=1;verticalAlign=middle;align=center;" parent="1" vertex="1">
          <mxGeometry x="140" y="394" width="100" height="40" as="geometry" />
        </mxCell>
        <mxCell id="ehSt0-UBUnzZHvyIIuaT-95" value="" style="shape=ext;double=1;rounded=1;whiteSpace=wrap;html=1;" parent="1" vertex="1">
          <mxGeometry x="690" y="389" width="170" height="50" as="geometry" />
        </mxCell>
        <mxCell id="ehSt0-UBUnzZHvyIIuaT-96" value="" style="shape=ext;double=1;rounded=1;whiteSpace=wrap;html=1;" parent="1" vertex="1">
          <mxGeometry x="870" y="389" width="100" height="50" as="geometry" />
        </mxCell>
        <mxCell id="ehSt0-UBUnzZHvyIIuaT-97" value="" style="shape=ext;double=1;rounded=1;whiteSpace=wrap;html=1;" parent="1" vertex="1">
          <mxGeometry x="980" y="389" width="100" height="50" as="geometry" />
        </mxCell>
        <mxCell id="ehSt0-UBUnzZHvyIIuaT-98" value="View Counts" style="text;strokeColor=none;fillColor=none;html=1;fontSize=24;fontStyle=1;verticalAlign=middle;align=center;" parent="1" vertex="1">
          <mxGeometry x="725" y="394" width="100" height="40" as="geometry" />
        </mxCell>
        <mxCell id="ehSt0-UBUnzZHvyIIuaT-99" value="Edit" style="text;strokeColor=none;fillColor=none;html=1;fontSize=24;fontStyle=1;verticalAlign=middle;align=center;" parent="1" vertex="1">
          <mxGeometry x="870" y="394" width="100" height="40" as="geometry" />
        </mxCell>
        <mxCell id="ehSt0-UBUnzZHvyIIuaT-100" value="Delete" style="text;strokeColor=none;fillColor=none;html=1;fontSize=24;fontStyle=1;verticalAlign=middle;align=center;" parent="1" vertex="1">
          <mxGeometry x="980" y="394" width="100" height="40" as="geometry" />
        </mxCell>
        <mxCell id="ehSt0-UBUnzZHvyIIuaT-101" value="" style="rounded=1;whiteSpace=wrap;html=1;" parent="1" vertex="1">
          <mxGeometry x="80" y="450" width="1010" height="60" as="geometry" />
        </mxCell>
        <mxCell id="ehSt0-UBUnzZHvyIIuaT-102" value="" style="shape=ext;double=1;rounded=1;whiteSpace=wrap;html=1;" parent="1" vertex="1">
          <mxGeometry x="90" y="455" width="200" height="50" as="geometry" />
        </mxCell>
        <mxCell id="ehSt0-UBUnzZHvyIIuaT-103" value="Gap Sensor 1" style="text;strokeColor=none;fillColor=none;html=1;fontSize=24;fontStyle=1;verticalAlign=middle;align=center;" parent="1" vertex="1">
          <mxGeometry x="140" y="460" width="100" height="40" as="geometry" />
        </mxCell>
        <mxCell id="ehSt0-UBUnzZHvyIIuaT-104" value="" style="shape=ext;double=1;rounded=1;whiteSpace=wrap;html=1;" parent="1" vertex="1">
          <mxGeometry x="690" y="455" width="170" height="50" as="geometry" />
        </mxCell>
        <mxCell id="ehSt0-UBUnzZHvyIIuaT-105" value="" style="shape=ext;double=1;rounded=1;whiteSpace=wrap;html=1;" parent="1" vertex="1">
          <mxGeometry x="870" y="455" width="100" height="50" as="geometry" />
        </mxCell>
        <mxCell id="ehSt0-UBUnzZHvyIIuaT-106" value="" style="shape=ext;double=1;rounded=1;whiteSpace=wrap;html=1;" parent="1" vertex="1">
          <mxGeometry x="980" y="455" width="100" height="50" as="geometry" />
        </mxCell>
        <mxCell id="ehSt0-UBUnzZHvyIIuaT-107" value="View Counts" style="text;strokeColor=none;fillColor=none;html=1;fontSize=24;fontStyle=1;verticalAlign=middle;align=center;" parent="1" vertex="1">
          <mxGeometry x="725" y="460" width="100" height="40" as="geometry" />
        </mxCell>
        <mxCell id="ehSt0-UBUnzZHvyIIuaT-108" value="Edit" style="text;strokeColor=none;fillColor=none;html=1;fontSize=24;fontStyle=1;verticalAlign=middle;align=center;" parent="1" vertex="1">
          <mxGeometry x="870" y="460" width="100" height="40" as="geometry" />
        </mxCell>
        <mxCell id="ehSt0-UBUnzZHvyIIuaT-109" value="Delete" style="text;strokeColor=none;fillColor=none;html=1;fontSize=24;fontStyle=1;verticalAlign=middle;align=center;" parent="1" vertex="1">
          <mxGeometry x="980" y="460" width="100" height="40" as="geometry" />
        </mxCell>
        <mxCell id="ehSt0-UBUnzZHvyIIuaT-110" value="" style="rounded=1;whiteSpace=wrap;html=1;" parent="1" vertex="1">
          <mxGeometry x="80" y="520" width="1010" height="60" as="geometry" />
        </mxCell>
        <mxCell id="ehSt0-UBUnzZHvyIIuaT-111" value="" style="shape=ext;double=1;rounded=1;whiteSpace=wrap;html=1;" parent="1" vertex="1">
          <mxGeometry x="90" y="525" width="200" height="50" as="geometry" />
        </mxCell>
        <mxCell id="ehSt0-UBUnzZHvyIIuaT-112" value="Gap Sensor 2" style="text;strokeColor=none;fillColor=none;html=1;fontSize=24;fontStyle=1;verticalAlign=middle;align=center;" parent="1" vertex="1">
          <mxGeometry x="140" y="530" width="100" height="40" as="geometry" />
        </mxCell>
        <mxCell id="ehSt0-UBUnzZHvyIIuaT-113" value="" style="shape=ext;double=1;rounded=1;whiteSpace=wrap;html=1;" parent="1" vertex="1">
          <mxGeometry x="690" y="525" width="170" height="50" as="geometry" />
        </mxCell>
        <mxCell id="ehSt0-UBUnzZHvyIIuaT-114" value="" style="shape=ext;double=1;rounded=1;whiteSpace=wrap;html=1;" parent="1" vertex="1">
          <mxGeometry x="870" y="525" width="100" height="50" as="geometry" />
        </mxCell>
        <mxCell id="ehSt0-UBUnzZHvyIIuaT-115" value="" style="shape=ext;double=1;rounded=1;whiteSpace=wrap;html=1;" parent="1" vertex="1">
          <mxGeometry x="980" y="525" width="100" height="50" as="geometry" />
        </mxCell>
        <mxCell id="ehSt0-UBUnzZHvyIIuaT-116" value="View Counts" style="text;strokeColor=none;fillColor=none;html=1;fontSize=24;fontStyle=1;verticalAlign=middle;align=center;" parent="1" vertex="1">
          <mxGeometry x="725" y="530" width="100" height="40" as="geometry" />
        </mxCell>
        <mxCell id="ehSt0-UBUnzZHvyIIuaT-117" value="Edit" style="text;strokeColor=none;fillColor=none;html=1;fontSize=24;fontStyle=1;verticalAlign=middle;align=center;" parent="1" vertex="1">
          <mxGeometry x="870" y="530" width="100" height="40" as="geometry" />
        </mxCell>
        <mxCell id="ehSt0-UBUnzZHvyIIuaT-118" value="Delete" style="text;strokeColor=none;fillColor=none;html=1;fontSize=24;fontStyle=1;verticalAlign=middle;align=center;" parent="1" vertex="1">
          <mxGeometry x="980" y="530" width="100" height="40" as="geometry" />
        </mxCell>
        <mxCell id="ehSt0-UBUnzZHvyIIuaT-128" value="" style="rounded=1;whiteSpace=wrap;html=1;" parent="1" vertex="1">
          <mxGeometry x="80" y="590" width="1010" height="60" as="geometry" />
        </mxCell>
        <mxCell id="ehSt0-UBUnzZHvyIIuaT-129" value="" style="shape=ext;double=1;rounded=1;whiteSpace=wrap;html=1;" parent="1" vertex="1">
          <mxGeometry x="90" y="595" width="200" height="50" as="geometry" />
        </mxCell>
        <mxCell id="ehSt0-UBUnzZHvyIIuaT-130" value="&lt;font style=&quot;font-size: 18px;&quot;&gt;Build a Bear Sensor 1&lt;/font&gt;" style="text;strokeColor=none;fillColor=none;html=1;fontSize=24;fontStyle=1;verticalAlign=middle;align=center;" parent="1" vertex="1">
          <mxGeometry x="140" y="600" width="100" height="40" as="geometry" />
        </mxCell>
        <mxCell id="ehSt0-UBUnzZHvyIIuaT-131" value="" style="shape=ext;double=1;rounded=1;whiteSpace=wrap;html=1;" parent="1" vertex="1">
          <mxGeometry x="690" y="595" width="170" height="50" as="geometry" />
        </mxCell>
        <mxCell id="ehSt0-UBUnzZHvyIIuaT-132" value="" style="shape=ext;double=1;rounded=1;whiteSpace=wrap;html=1;" parent="1" vertex="1">
          <mxGeometry x="870" y="595" width="100" height="50" as="geometry" />
        </mxCell>
        <mxCell id="ehSt0-UBUnzZHvyIIuaT-133" value="" style="shape=ext;double=1;rounded=1;whiteSpace=wrap;html=1;" parent="1" vertex="1">
          <mxGeometry x="980" y="595" width="100" height="50" as="geometry" />
        </mxCell>
        <mxCell id="ehSt0-UBUnzZHvyIIuaT-134" value="View Counts" style="text;strokeColor=none;fillColor=none;html=1;fontSize=24;fontStyle=1;verticalAlign=middle;align=center;" parent="1" vertex="1">
          <mxGeometry x="725" y="600" width="100" height="40" as="geometry" />
        </mxCell>
        <mxCell id="ehSt0-UBUnzZHvyIIuaT-135" value="Edit" style="text;strokeColor=none;fillColor=none;html=1;fontSize=24;fontStyle=1;verticalAlign=middle;align=center;" parent="1" vertex="1">
          <mxGeometry x="870" y="600" width="100" height="40" as="geometry" />
        </mxCell>
        <mxCell id="ehSt0-UBUnzZHvyIIuaT-136" value="Delete" style="text;strokeColor=none;fillColor=none;html=1;fontSize=24;fontStyle=1;verticalAlign=middle;align=center;" parent="1" vertex="1">
          <mxGeometry x="980" y="600" width="100" height="40" as="geometry" />
        </mxCell>
        <mxCell id="ehSt0-UBUnzZHvyIIuaT-137" value="" style="rounded=1;whiteSpace=wrap;html=1;" parent="1" vertex="1">
          <mxGeometry x="80" y="660" width="1010" height="60" as="geometry" />
        </mxCell>
        <mxCell id="ehSt0-UBUnzZHvyIIuaT-138" value="" style="shape=ext;double=1;rounded=1;whiteSpace=wrap;html=1;" parent="1" vertex="1">
          <mxGeometry x="90" y="665" width="200" height="50" as="geometry" />
        </mxCell>
        <mxCell id="ehSt0-UBUnzZHvyIIuaT-139" value="&lt;font style=&quot;font-size: 18px;&quot;&gt;Build a Bear Sensor 2&lt;/font&gt;" style="text;strokeColor=none;fillColor=none;html=1;fontSize=24;fontStyle=1;verticalAlign=middle;align=center;" parent="1" vertex="1">
          <mxGeometry x="140" y="670" width="100" height="40" as="geometry" />
        </mxCell>
        <mxCell id="ehSt0-UBUnzZHvyIIuaT-140" value="" style="shape=ext;double=1;rounded=1;whiteSpace=wrap;html=1;" parent="1" vertex="1">
          <mxGeometry x="690" y="665" width="170" height="50" as="geometry" />
        </mxCell>
        <mxCell id="ehSt0-UBUnzZHvyIIuaT-141" value="" style="shape=ext;double=1;rounded=1;whiteSpace=wrap;html=1;" parent="1" vertex="1">
          <mxGeometry x="870" y="665" width="100" height="50" as="geometry" />
        </mxCell>
        <mxCell id="ehSt0-UBUnzZHvyIIuaT-142" value="" style="shape=ext;double=1;rounded=1;whiteSpace=wrap;html=1;" parent="1" vertex="1">
          <mxGeometry x="980" y="665" width="100" height="50" as="geometry" />
        </mxCell>
        <mxCell id="ehSt0-UBUnzZHvyIIuaT-143" value="View Counts" style="text;strokeColor=none;fillColor=none;html=1;fontSize=24;fontStyle=1;verticalAlign=middle;align=center;" parent="1" vertex="1">
          <mxGeometry x="725" y="670" width="100" height="40" as="geometry" />
        </mxCell>
        <mxCell id="ehSt0-UBUnzZHvyIIuaT-144" value="Edit" style="text;strokeColor=none;fillColor=none;html=1;fontSize=24;fontStyle=1;verticalAlign=middle;align=center;" parent="1" vertex="1">
          <mxGeometry x="870" y="670" width="100" height="40" as="geometry" />
        </mxCell>
        <mxCell id="ehSt0-UBUnzZHvyIIuaT-145" value="Delete" style="text;strokeColor=none;fillColor=none;html=1;fontSize=24;fontStyle=1;verticalAlign=middle;align=center;" parent="1" vertex="1">
          <mxGeometry x="980" y="670" width="100" height="40" as="geometry" />
        </mxCell>
      </root>
    </mxGraphModel>
  </diagram>
</mxfile>
